<svg width="75" height="40" viewBox="0 0 75 40" fill="none" xmlns="http://www.w3.org/2000/svg">
<path d="M55 0C43.96 0 35 8.96 35 20C35 31.04 43.96 40 55 40C66.04 40 75 31.04 75 20C75 8.96 66.04 0 55 0ZM55 6C58.32 6 61 8.68 61 12C61 15.32 58.32 18 55 18C51.68 18 49 15.32 49 12C49 8.68 51.68 6 55 6ZM55 34.4C50 34.4 45.58 31.84 43 27.96C43.06 23.98 51 21.8 55 21.8C58.98 21.8 66.94 23.98 67 27.96C64.42 31.84 60 34.4 55 34.4Z" fill="white"/>
<path d="M27.3174 15.3174V8.68258H20.6826L16 4L11.3174 8.68258H4.68258V15.3174L0 20L4.68258 24.6826V31.3174H11.3174L16 36L20.6826 31.3174H27.3174V24.6826L32 20L27.3174 15.3174ZM16 28.4881C14.7409 28.4881 13.5385 28.2051 12.4633 27.71C15.3775 26.366 17.4147 23.4235 17.4147 20C17.4147 16.5765 15.3775 13.634 12.4633 12.29C13.5385 11.7949 14.7409 11.5119 16 11.5119C20.6826 11.5119 24.4881 15.3174 24.4881 20C24.4881 24.6826 20.6826 28.4881 16 28.4881Z" fill="white"/>
</svg>
